
<svg xmlns="http://www.w3.org/2000/svg" version="1.1" xmlns:xlink="http://www.w3.org/1999/xlink" preserveAspectRatio="none" x="0px" y="0px" width="85px" height="44px" viewBox="0 0 85 44">
<defs>
<filter id="Filter_1" x="-20%" y="-20%" width="140%" height="140%" color-interpolation-filters="sRGB">
<feColorMatrix in="SourceGraphic" type="matrix" values="1 0 0 0 0 0 1 0 0 0 0 0 1 0 0 0 0 0 0.42 0" result="result1"/>
</filter>

<filter id="Filter_2" x="-20%" y="-20%" width="140%" height="140%" color-interpolation-filters="sRGB">
<feColorMatrix in="SourceGraphic" type="matrix" values="0 0 0 0 0.3411764705882353 0 0 0 0 0.3137254901960784 0 0 0 0 0.2784313725490196 0 0 0 1 0" result="result1"/>
</filter>

<g id="Symbol_3_0_Layer0_0_FILL">
<path fill="#FFFFFF" stroke="none" d="
M 70.8 2.3
Q 70.8 0 68.5 0
L 2.25 0
Q 0 0 0 2.3
L 0 24.6
Q 0 26.85 2.25 26.85
L 68.5 26.85
Q 70.8 26.85 70.8 24.6
L 70.8 2.3 Z"/>
</g>

<path id="Layer0_1_MEMBER_0_MEMBER_0_1_STROKES" stroke="#575047" stroke-width="1.5" stroke-linejoin="round" stroke-linecap="round" fill="none" d="
M 9.35 8.6
L 75.6 8.6
Q 77.9 8.6 77.9 10.9
L 77.9 33.2
Q 77.9 35.45 75.6 35.45
L 9.35 35.45
Q 7.1 35.45 7.1 33.2
L 7.1 10.9
Q 7.1 8.6 9.35 8.6 Z"/>

<path id="Symbol_1_0_Layer0_0_MEMBER_0_1_STROKES" stroke="#FFFFFF" stroke-width="1.25" stroke-linejoin="round" stroke-linecap="square" fill="none" d="
M 47.65 28.75
L 43.2 28.75 43.2 24.9 43.2 21.3 47.65 21.3
M 43.2 24.9
L 46.15 24.9
M 65.05 21.3
L 65.05 27.65
Q 65.05 28.75 63.75 28.75
L 60.95 28.75
Q 59.7 28.75 59.7 27.65
L 59.7 21.3
M 50.7 28.75
L 50.7 21.3 56.7 28.75 56.7 21.3
M 33.05 28.75
L 33.05 21.3 36.7 28.25 40.25 21.3 40.25 28.75"/>

<path id="Symbol_1_0_Layer0_1_MEMBER_0_1_STROKES" stroke="#B2ACA5" stroke-width="1.25" stroke-linejoin="round" stroke-linecap="square" fill="none" d="
M 18.35 25
L 27.35 25
M 18.35 28.5
L 27.35 28.5
M 18.35 21.5
L 27.35 21.5"/>
</defs>

<g transform="matrix( 1, 0, 0, 1, 7.1,8.6) ">
<g transform="matrix( 1, 0, 0, 1, 0,0) ">
<use filter="url(#Filter_1)" xlink:href="#Symbol_3_0_Layer0_0_FILL"/>
</g>
</g>

<g transform="matrix( 1, 0, 0, 1, 0,0) ">
<use xlink:href="#Layer0_1_MEMBER_0_MEMBER_0_1_STROKES"/>
</g>

<g transform="matrix( 1, 0, 0, 1, 18.35,18.3) ">
<g transform="matrix( 1, 0, 0, 1, 0,0) ">
<g transform="matrix( 1, 0, 0, 1, -18.35,-21.3) ">
<use filter="url(#Filter_2)" xlink:href="#Symbol_1_0_Layer0_0_MEMBER_0_1_STROKES"/>
</g>

<g transform="matrix( 1, 0, 0, 1, -18.35,-21.3) ">
<use filter="url(#Filter_2)" xlink:href="#Symbol_1_0_Layer0_1_MEMBER_0_1_STROKES"/>
</g>
</g>
</g>
</svg>
